<svg xmlns="http://www.w3.org/2000/svg" width="64" height="64" viewBox="0 0 64 64">
  <defs>
    <linearGradient id="goldGradient" x1="0%" y1="0%" x2="100%" y2="100%">
      <stop offset="0%" stop-color="#f2cf6b" />
      <stop offset="100%" stop-color="#b68925" />
    </linearGradient>
  </defs>
  <circle cx="32" cy="32" r="32" fill="url(#goldGradient)" />
  <g transform="translate(14, 14) scale(1.5)" stroke="#0a0a0a" stroke-width="2" stroke-linecap="round" stroke-linejoin="round" fill="none">
    <path d="M11.562 3.266a.5.5 0 0 1 .876 0L15.39 8.87a1 1 0 0 0 1.516.294L21.183 5.5a.5.5 0 0 1 .798.519l-2.834 10.246a1 1 0 0 1-.956.734H5.81a1 1 0 0 1-.957-.734L2.02 6.02a.5.5 0 0 1 .798-.519l4.276 3.664a1 1 0 0 0 1.516-.294z"/>
    <path d="M5 21h14"/>
  </g>
</svg>
